<?xml version="1.0" encoding="UTF-8" standalone="no"?>
<!-- Created with Inkscape (http://www.inkscape.org/) -->

<svg
   width="343.4462mm"
   height="251.85522mm"
   viewBox="0 0 343.4462 251.85523"
   version="1.1"
   id="svg5"
   sodipodi:docname="aphidtest.svg"
   inkscape:version="1.1.2 (b8e25be833, 2022-02-05)"
   xmlns:inkscape="http://www.inkscape.org/namespaces/inkscape"
   xmlns:sodipodi="http://sodipodi.sourceforge.net/DTD/sodipodi-0.dtd"
   xmlns="http://www.w3.org/2000/svg"
   xmlns:svg="http://www.w3.org/2000/svg">
  <sodipodi:namedview
     id="namedview7"
     pagecolor="#ffffff"
     bordercolor="#111111"
     borderopacity="1"
     inkscape:pageshadow="0"
     inkscape:pageopacity="0"
     inkscape:pagecheckerboard="1"
     inkscape:document-units="mm"
     showgrid="false"
     inkscape:zoom="0.45254834"
     inkscape:cx="888.3029"
     inkscape:cy="465.14368"
     inkscape:window-width="1920"
     inkscape:window-height="1013"
     inkscape:window-x="-9"
     inkscape:window-y="-9"
     inkscape:window-maximized="1"
     inkscape:current-layer="layer1" />
  <defs
     id="defs2" />
  <g
     inkscape:label="Layer 1"
     inkscape:groupmode="layer"
     id="layer1"
     transform="translate(12.782759,-51.814627)">
    <path
       style="fill:#9cac40;fill-opacity:1;fill-rule:evenodd;stroke-width:0.489774;stroke-miterlimit:4;stroke-dasharray:none"
       d="m 134.50403,276.79172 c -9.49654,-1.82631 -13.56082,-2.23005 -14.37375,-3.4915 -0.38789,-0.6019 -1.024,-5.6245 -2.03883,-10.35743 -2.75789,-12.86221 -4.5297,-18.59066 -7.82836,-25.30978 -4.74683,-9.66896 -7.87189,-12.91504 -13.055285,-12.33079 -2.778268,0.31315 -4.315551,0.94166 -6.059604,4.57626 -1.972938,4.1116 -2.458759,9.23952 -2.884156,21.01717 -0.257552,7.1306 -0.619816,12.08532 -1.050629,12.98086 -1.548943,3.21983 -6.498104,2.99401 -22.613279,-2.48001 -19.75518,-6.71046 -29.93428,-9.19698 -45.579903,-23.54146 -10.988716,-10.07486 -19.81426597,-22.59125 -21.3186756,-33.05272 -0.8269368,-5.75041 2.80363654,-12.23604 4.6135163,-12.92416 1.5495676,-0.58914 11.6691363,-1.57455 21.3090193,0.67252 11.869847,2.76688 20.885422,2.33706 33.763828,-4.99312 7.861061,-4.47439 18.737824,-10.38652 28.97492,-17.77063 15.165668,-10.93914 33.947778,-23.14433 45.901248,-29.65464 3.10197,-1.68945 11.64402,-6.09867 18.98234,-9.61963 13.99636,-6.71552 21.38169,-9.59985 32.40317,-11.8819 8.71076,-1.80361 27.63278,-1.08766 38.56064,1.27696 6.87115,1.48681 12.42874,4.15194 21.36732,11.59153 16.05047,13.3588 29.51296,22.99244 39.75015,26.40505 5.82793,1.94277 8.47696,3.13116 14.62189,2.41758 7.18541,-0.83441 12.56561,-1.29885 13.0474,-0.51929 0.84584,1.36861 -2.69206,20.2688 -6.55379,30.0488 -7.63465,19.33505 -19.96146,36.28763 -31.27554,45.30733 -3.06998,2.44742 -23.16526,13.00822 -24.12073,13.00822 -0.1775,0 0.11391,-5.03221 0.11165,-8.86031 -0.004,-5.78193 -0.55578,-8.2758 -1.82839,-14.37311 -2.00533,-9.60783 -2.41999,-13.71121 -1.66194,-22.48586 1.7993,-20.82725 -5.02926,-40.09667 -17.51455,-49.87589 -4.42144,-3.46314 -4.74909,-4.84232 -7.72569,-4.57487 -1.27319,0.1144 -0.5988,0.7724 0.35279,2.61257 0.44753,0.86545 1.85075,3.08719 4.01147,5.38381 7.30156,7.7608 10.51834,13.68518 13.4688,25.46037 1.49453,5.96463 2.25637,19.42372 1.08631,23.5179 -1.27912,4.4758 -3.91457,8.31032 -7.0157,9.68545 -4.78295,2.12091 -7.68142,5.60999 -10.7309,15.19769 -2.16086,6.79389 -3.24843,13.93797 -4.68902,26.42972 -0.68786,5.96452 -1.50056,12.02811 -1.71668,12.22414 -0.45652,0.41407 -18.52756,4.83472 -24.48185,5.9805 -19.65735,3.78269 -40.89345,5.24808 -54.30909,2.66808 z m -8.37008,-33.04041 c 1.30287,-0.79443 0.2433,-1.91837 0.68988,-4.10652 1.13905,-5.58101 1.10535,-10.72299 1.10983,-25.44832 0.007,-21.41798 -0.27922,-25.80722 -4.13123,-32.35191 -4.18353,-7.10794 -8.52658,-10.90477 -13.63297,-10.90477 -2.87136,0 -2.19233,-0.78384 -2.19233,0.55706 0,1.25663 0.78751,1.81505 3.1427,2.52068 5.55377,1.66395 10.04707,9.95137 12.69951,24.47613 0.76491,4.18866 1.77131,7.94751 1.62712,17.58143 -0.37834,25.27862 -1.65151,25.47668 -0.91865,26.35899 0.90789,1.09301 -0.35888,2.51541 1.60614,1.31723 z m -71.251624,-2.33134 c 5.405576,-1.60528 7.212215,-5.35724 8.300313,-12.1137 1.009908,-6.27093 0.805541,-10.08076 -2.930733,-12.58578 -2.042869,-1.36967 -4.21096,-1.05393 -6.94805,0.0897 -3.889215,1.62501 -5.353882,3.70615 -8.23463,9.38688 -4.284755,8.44941 -2.242854,15.94443 6.464151,16.37948 0.575886,0.0288 1.922135,-0.73286 3.348949,-1.15658 z"
       id="path12107"
       sodipodi:nodetypes="sssssssssssssssssssssssssscssssssssssssssssscsssssssssssssss" />
    <path
       style="fill:#8d6132;fill-opacity:1;fill-rule:evenodd;stroke-width:0.173161;stroke-miterlimit:4;stroke-dasharray:none"
       d="m 104.18412,292.30443 c -0.29529,-0.1287 -2.80119,-2.21119 -3.24629,-2.66267 -2.617952,-2.65549 -4.15551,-10.32822 -5.396185,-21.09189 -1.0836,-9.40091 -0.94474,-29.3649 -0.327816,-31.10757 0.365968,-1.03376 7.573171,-2.37629 8.904021,-0.92473 5.50885,6.00852 8.32383,24.39224 9.53004,39.81738 0.53869,6.88893 -0.70526,14.33118 -2.51578,15.43519 -0.65376,0.39864 -6.15102,0.88163 -6.94799,0.53429 z"
       id="path22525"
       sodipodi:nodetypes="ssssssss" />
    <path
       style="fill:#8d6132;fill-opacity:1;fill-rule:evenodd;stroke-width:0.173161;stroke-miterlimit:4;stroke-dasharray:none"
       d="m 83.335955,290.84338 c -2.428649,-1.54021 -5.762921,-6.68262 -7.365489,-12.71297 -0.236582,-0.89025 2.95317,-4.13249 3.928936,-4.12701 0.977767,0.005 8.488646,0.66542 9.100788,1.06651 1.042452,0.68304 2.424002,7.30172 2.625354,10.56146 0.241527,3.91012 -6.078932,6.61396 -8.289589,5.21201 z"
       id="path22564"
       sodipodi:nodetypes="sscsss" />
    <path
       style="fill:#8d6132;fill-opacity:1;fill-rule:evenodd;stroke-width:0.173161;stroke-miterlimit:4;stroke-dasharray:none"
       d="m 230.04579,285.31685 c -1.0337,-0.51718 -4.09159,-4.38407 -5.45029,-7.13555 -2.23654,-4.52918 -2.82051,-7.33681 -2.81044,-13.51202 0.009,-5.37003 0.94372,-13.16098 2.38488,-21.7416 1.10578,-6.58375 2.44913,-12.09282 3.78631,-14.91689 1.68332,-3.55509 5.77011,-5.48277 8.37766,-4.14786 0.98487,0.5042 3.9912,3.2216 4.41924,5.05214 0.53357,2.28186 4.10208,4.59093 4.25888,10.01865 0.36581,12.66289 -1.81287,29.22973 -3.70715,36.7403 -1.0018,3.97198 -5.667,11.52146 -7.14867,11.51967 -2.35646,3.53119 -3.81513,-1.7291 -4.11042,-1.87684 z"
       id="path22603"
       sodipodi:nodetypes="sscsssssscs" />
    <path
       style="fill:#8d6132;fill-opacity:1;fill-rule:evenodd;stroke-width:0.173161;stroke-miterlimit:4;stroke-dasharray:none"
       d="m 213.41795,287.71654 c -2.4299,-0.48741 -5.90604,-7.82175 -2.56904,-9.86668 0.43592,-0.26714 1.14795,-0.85393 3.1364,-0.96653 1.59261,-0.0902 3.09507,-0.0567 3.82791,0.2675 1.47642,0.65309 3.34709,6.71913 2.67072,8.06737 -0.66838,1.33233 -5.55701,2.80103 -7.06599,2.49834 z"
       id="path22642"
       sodipodi:nodetypes="ssssss" />
    <path
       style="fill:#000000;fill-opacity:1;stroke-width:2.7009"
       d="m 78.080578,299.7618 c -2.61386,-1.52212 -7.064649,-6.71558 -8.81243,-12.09045 C 66.98948,280.66389 61.360343,278.55451 45.902129,272.57588 26.800494,265.18811 9.2455321,251.46115 -2.2046405,234.74456 -9.7236228,223.76729 -10.912058,219.32908 -12.364273,202.9023 c -1.422374,-16.08924 0.800157,-19.11768 6.3762574,-23.63294 3.5069399,-2.83976 10.2346711,-5.16318 14.9505107,-5.16318 7.8167929,0 9.3199329,-1.49126 17.0151039,-16.88066 26.057314,-52.11146 66.712923,-84.599557 124.409191,-99.416033 26.39856,-6.779172 53.32145,-8.06327 53.32145,-2.543192 0,2.970472 -4.50391,4.548166 -16.88152,5.913445 -51.48193,5.678635 -103.015462,31.026675 -127.339719,62.63521 -10.271037,13.34686 -32.68813,48.72857 -32.68813,51.59288 0,0.76959 2.224779,1.39924 4.943956,1.39924 2.821412,0 8.847242,-5.50788 14.035722,-12.82928 24.891824,-35.12461 67.283051,-70.692358 104.209921,-87.435804 21.94711,-9.951298 61.89321,-16.976915 83.42974,-14.673431 39.19828,4.192531 46.84045,13.788794 8.70399,10.929582 -53.20896,-3.989229 -99.92082,12.326544 -146.105043,51.032383 -13.874341,11.62774 -44.910129,46.84708 -44.910129,50.96391 0,1.31275 8.81171,-4.78749 19.581573,-13.55611 20.752707,-16.89645 50.759129,-34.60506 81.702419,-49.77075 2.64603,-1.29685 21.88761,-11.864449 48.62295,-12.473403 15.7684,-0.359157 30.24401,3.850523 45.03709,12.401753 8.43356,4.87506 11.97287,7.44096 16.20544,11.03973 6.7982,5.78019 6.23769,6.03506 12.7558,10.71782 13.08377,9.39966 26.61404,11.08528 42.61573,5.29899 15.60291,-5.6421 16.46474,-1.18703 6.48571,33.52615 -11.90575,41.41556 -22.86744,58.81298 -51.55353,81.82128 -11.06896,8.87809 -16.90829,15.95454 -20.13302,24.39834 -9.3137,24.38759 -30.13,28.29261 -48.94769,16.00075 -6.54787,-4.27713 -9.46187,-3.84588 -23.04693,-0.9324 -7.887,1.69144 -23.26682,3.11211 -34.03152,1.58358 -18.94041,-2.68944 -22.62344,-4.94991 -25.12077,2.58264 -1.58343,4.77606 -3.13145,6.3051 -20.97674,6.23475 -11.460343,-0.0452 -19.609105,-2.38364 -22.222962,-3.90575 z m 33.320382,-22.28494 c -0.63711,-14.49053 -5.19592,-30.75945 -10.44699,-37.28193 -3.973189,-4.93518 -4.191863,-3.73771 -3.035105,16.62045 1.288513,22.677 5.219235,34.5905 10.765295,32.62815 1.85531,-0.65646 2.99363,-5.6704 2.7168,-11.96667 z m -23.650624,5.34079 c -0.852608,-5.72988 -2.673625,-4.84379 -4.951093,-5.55906 -6.095616,-1.91443 -3.866762,0.67005 -2.805954,4.72657 1.764077,6.74585 9.462617,12.29464 7.757047,0.83249 z m 130.812894,-0.67521 c 0,-1.48551 -1.21541,-2.70092 -2.70091,-2.70092 -1.48549,0 -5.03469,-0.23155 -5.03469,1.25397 0,1.4855 1.54214,4.00783 5.03469,4.14785 1.48431,0.0595 2.70091,-1.2154 2.70091,-2.7009 z m 17.53016,-4.72659 c 3.81377,-9.47423 4.96748,-48.42246 1.49785,-50.56681 -5.48442,-3.38955 -8.39193,2.28251 -11.14878,21.74935 -1.88001,13.27526 -1.74456,20.69004 0.47586,26.05062 3.57393,8.62825 6.4647,9.49999 9.17507,2.76684 z m -35.08605,-6.75557 13.50453,-3.37282 1.81676,-16.46737 c 2.28482,-20.71031 8.67224,-36.27059 15.63647,-38.09178 12.25231,-3.20406 7.67571,-41.36963 -6.56512,-54.74818 -3.7602,-3.53256 -6.83675,-7.42636 -6.83675,-8.65291 0,-5.20157 8.13055,-1.56108 15.65617,7.01015 9.42041,10.72924 14.97065,31.05293 12.47661,48.08814 -1.87673,12.81856 3.39103,22.51425 3.37339,32.07725 l -0.0194,10.49901 16.23844,-9.42841 c 20.07874,-11.6582 35.90275,-42.01864 42.27719,-69.07496 2.32185,-9.85512 3.77322,-9.07615 -13.20672,-7.23755 -15.90969,1.72272 -37.41218,-14.96156 -51.63115,-26.32596 -5.12475,-4.09594 -8.84869,-8.36355 -17.95528,-12.01567 -7.63402,-2.09625 -14.81852,-3.10467 -29.84678,-3.26069 -7.45051,-0.43269 -18.50871,2.46222 -30.18429,6.25459 l -24.45562,11.73084 c -14.7535,7.07693 -39.18747,22.86592 -54.682908,34.30765 -15.495433,11.4417 -32.078973,21.12404 -36.561277,22.59434 -4.61327,1.51327 -5.666493,2.53146 -11.59125,3.0475 -3.388174,0.29511 -7.636406,0.57828 -11.007148,-0.26258 -3.750733,-0.49194 -7.160287,-1.84613 -13.473655,-2.89196 -11.0675673,-1.83339 -11.4788539,-1.64796 -11.4788539,5.1749 0,11.58186 6.6428656,23.78175 19.2213069,35.30081 15.999317,14.6518 23.258856,19.00378 42.528597,25.49528 23.734985,7.99573 23.440188,8.14612 23.380527,-11.92598 -0.114467,-38.50677 23.050681,-30.46606 30.735421,10.66834 1.27779,6.83966 2.85243,12.96494 3.49922,13.61171 0.64678,0.6468 7.7818,2.14226 15.8556,3.32327 15.63571,2.28717 41.17648,0.0973 63.29596,-5.42728 z M 123.11035,245.2092 c -1.05132,-1.05131 -1.1215,-10.62935 -0.15594,-21.28451 2.07277,-22.8739 -4.1601,-46.87398 -12.75712,-49.12214 -6.68433,-1.74798 -6.5242,-6.09818 0.22447,-6.09818 6.44431,0 15.82686,9.59205 18.44086,18.85261 2.99116,10.59667 2.2654,53.45753 -0.95981,56.68275 -1.58454,1.58452 -3.74114,2.02079 -4.79246,0.96947 z m -80.712049,-7.88316 c -2.555817,-5.60942 -2.409866,-8.37923 0.733129,-13.91296 8.539046,-15.03433 21.892115,-14.79114 23.702057,0.43163 2.068969,17.40138 -17.683686,28.29925 -24.435186,13.48133 z"
       id="path139"
       sodipodi:nodetypes="sssssssssscssscssssssssssssssssssssssssssssssssssssssssccssssssscsssscccsssscssssssssccssssssssssss" />
  </g>
</svg>
